solid MATLAB_1
facet normal 0.224394009 0.831933558 0.507477999
  outer loop
   vertex 482.160004 441.760986 238.962006
   vertex 474.145996 441.532013 242.880997
   vertex 481.638 437.313995 246.483002
  endloop
 endfacet
facet normal 0.225525081 0.830271423 0.509693801
  outer loop
   vertex 482.160004 441.760986 238.962006
   vertex 474.214996 445.81601 235.871994
   vertex 474.145996 441.532013 242.880997
  endloop
 endfacet
facet normal 0.233056784 0.835643351 0.497377872
  outer loop
   vertex 482.160004 441.760986 238.962006
   vertex 482.382996 445.744995 232.164001
   vertex 474.214996 445.81601 235.871994
  endloop
 endfacet
facet normal 0.946998775 0.262631357 0.18498148
  outer loop
   vertex 482.160004 441.760986 238.962006
   vertex 484.989014 436.923004 231.348007
   vertex 482.382996 445.744995 232.164001
  endloop
 endfacet
facet normal 0.913049102 0.398699105 0.0859088153
  outer loop
   vertex 482.160004 441.760986 238.962006
   vertex 485.321014 434.27301 240.117996
   vertex 484.989014 436.923004 231.348007
  endloop
 endfacet
facet normal 0.860619485 0.409945667 0.302123606
  outer loop
   vertex 481.638 437.313995 246.483002
   vertex 485.321014 434.27301 240.117996
   vertex 482.160004 441.760986 238.962006
  endloop
 endfacet
facet normal 0.861294925 0.407293051 0.303781807
  outer loop
   vertex 481.638 437.313995 246.483002
   vertex 485.44101 429.113007 246.695999
   vertex 485.321014 434.27301 240.117996
  endloop
 endfacet
facet normal 0.84052068 0.399280578 0.366196752
  outer loop
   vertex 481.638 437.313995 246.483002
   vertex 480.733002 432.899994 253.373001
   vertex 485.44101 429.113007 246.695999
  endloop
 endfacet
facet normal 0.202508524 0.812283099 0.546979368
  outer loop
   vertex 481.638 437.313995 246.483002
   vertex 473.380005 437.156006 249.774994
   vertex 480.733002 432.899994 253.373001
  endloop
 endfacet
facet normal 0.199964777 0.817019999 0.540825725
  outer loop
   vertex 474.145996 441.532013 242.880997
   vertex 473.380005 437.156006 249.774994
   vertex 481.638 437.313995 246.483002
  endloop
 endfacet
facet normal 0.0211453382 0.843022704 0.537462234
  outer loop
   vertex 474.145996 441.532013 242.880997
   vertex 465.382996 439.842987 245.875
   vertex 473.380005 437.156006 249.774994
  endloop
 endfacet
facet normal 0.00509952009 0.864496708 0.502612591
  outer loop
   vertex 474.145996 441.532013 242.880997
   vertex 465.617004 444.048004 238.639999
   vertex 465.382996 439.842987 245.875
  endloop
 endfacet
facet normal -0.00758194551 0.853251398 0.521444678
  outer loop
   vertex 474.214996 445.81601 235.871994
   vertex 465.617004 444.048004 238.639999
   vertex 474.145996 441.532013 242.880997
  endloop
 endfacet
facet normal -0.038116239 0.891647339 0.451123208
  outer loop
   vertex 474.214996 445.81601 235.871994
   vertex 465.871002 447.859009 231.128998
   vertex 465.617004 444.048004 238.639999
  endloop
 endfacet
facet normal -0.0444349311 0.886741042 0.460125893
  outer loop
   vertex 474.214996 445.81601 235.871994
   vertex 474.02301 449.516998 228.720993
   vertex 465.871002 447.859009 231.128998
  endloop
 endfacet
facet normal 0.209577695 0.870668352 0.444987386
  outer loop
   vertex 482.382996 445.744995 232.164001
   vertex 474.02301 449.516998 228.720993
   vertex 474.214996 445.81601 235.871994
  endloop
 endfacet
facet normal 0.167963535 0.84128356 0.513838649
  outer loop
   vertex 482.382996 445.744995 232.164001
   vertex 481.558014 449.881012 225.662003
   vertex 474.02301 449.516998 228.720993
  endloop
 endfacet
facet normal 0.913341105 0.386002928 0.129652679
  outer loop
   vertex 482.382996 445.744995 232.164001
   vertex 484.548004 443.348999 224.046005
   vertex 481.558014 449.881012 225.662003
  endloop
 endfacet
facet normal 0.948507488 0.263996482 0.175041035
  outer loop
   vertex 484.989014 436.923004 231.348007
   vertex 484.548004 443.348999 224.046005
   vertex 482.382996 445.744995 232.164001
  endloop
 endfacet
facet normal 0.961587071 -0.174650267 -0.211772457
  outer loop
   vertex 484.989014 436.923004 231.348007
   vertex 482.825012 434.932007 223.164001
   vertex 484.548004 443.348999 224.046005
  endloop
 endfacet
facet normal 0.942087829 -0.282767564 -0.180313766
  outer loop
   vertex 484.989014 436.923004 231.348007
   vertex 482.009003 428.855988 228.429001
   vertex 482.825012 434.932007 223.164001
  endloop
 endfacet
facet normal 0.897959173 -0.187678412 -0.398052961
  outer loop
   vertex 484.989014 436.923004 231.348007
   vertex 484.786011 427.537994 235.315002
   vertex 482.009003 428.855988 228.429001
  endloop
 endfacet
facet normal 0.997766018 -0.0425018445 -0.0515417233
  outer loop
   vertex 485.44101 429.113007 246.695999
   vertex 484.786011 427.537994 235.315002
   vertex 485.321014 434.27301 240.117996
  endloop
 endfacet
facet normal 0.997781754 -0.0430466011 -0.0507795922
  outer loop
   vertex 485.321014 434.27301 240.117996
   vertex 484.786011 427.537994 235.315002
   vertex 484.989014 436.923004 231.348007
  endloop
 endfacet
facet normal 0.992462516 -0.115435883 -0.0411432572
  outer loop
   vertex 485.44101 429.113007 246.695999
   vertex 484.348999 421.971008 240.393005
   vertex 484.786011 427.537994 235.315002
  endloop
 endfacet
facet normal 0.993039608 -0.0653670356 -0.0979768261
  outer loop
   vertex 485.44101 429.113007 246.695999
   vertex 484.709991 417.78299 246.845993
   vertex 484.348999 421.971008 240.393005
  endloop
 endfacet
facet normal 0.993899524 -0.0629262254 0.0905760527
  outer loop
   vertex 485.44101 429.113007 246.695999
   vertex 484.583008 425.470001 253.580002
   vertex 484.709991 417.78299 246.845993
  endloop
 endfacet
facet normal 0.832122445 0.440565437 0.336859524
  outer loop
   vertex 480.733002 432.899994 253.373001
   vertex 484.583008 425.470001 253.580002
   vertex 485.44101 429.113007 246.695999
  endloop
 endfacet
facet normal 0.717861474 0.388076752 0.577989042
  outer loop
   vertex 480.733002 432.899994 253.373001
   vertex 477.149994 429.765015 259.928009
   vertex 484.583008 425.470001 253.580002
  endloop
 endfacet
facet normal 0.168235868 0.850327909 0.498637259
  outer loop
   vertex 480.733002 432.899994 253.373001
   vertex 470.990997 433.233002 256.09201
   vertex 477.149994 429.765015 259.928009
  endloop
 endfacet
facet normal 0.185975492 0.801626742 0.568161666
  outer loop
   vertex 473.380005 437.156006 249.774994
   vertex 470.990997 433.233002 256.09201
   vertex 480.733002 432.899994 253.373001
  endloop
 endfacet
facet normal 0.0224738065 0.845467508 0.53355372
  outer loop
   vertex 473.380005 437.156006 249.774994
   vertex 464.075012 435.653992 252.546997
   vertex 470.990997 433.233002 256.09201
  endloop
 endfacet
facet normal 0.0229822192 0.844653785 0.534819424
  outer loop
   vertex 465.382996 439.842987 245.875
   vertex 464.075012 435.653992 252.546997
   vertex 473.380005 437.156006 249.774994
  endloop
 endfacet
facet normal -0.00735499244 0.847538352 0.53068316
  outer loop
   vertex 465.382996 439.842987 245.875
   vertex 456.007996 437.294006 249.815994
   vertex 464.075012 435.653992 252.546997
  endloop
 endfacet
facet normal -0.0294842795 0.869834363 0.492462009
  outer loop
   vertex 465.382996 439.842987 245.875
   vertex 457.675995 441.903015 241.774994
   vertex 456.007996 437.294006 249.815994
  endloop
 endfacet
facet normal -0.0356118977 0.864531159 0.501315892
  outer loop
   vertex 465.617004 444.048004 238.639999
   vertex 457.675995 441.903015 241.774994
   vertex 465.382996 439.842987 245.875
  endloop
 endfacet
facet normal -0.0725557059 0.899208188 0.431463033
  outer loop
   vertex 465.617004 444.048004 238.639999
   vertex 457.691986 445.894989 233.457993
   vertex 457.675995 441.903015 241.774994
  endloop
 endfacet
facet normal -0.0859188139 0.889647603 0.44849202
  outer loop
   vertex 465.871002 447.859009 231.128998
   vertex 457.691986 445.894989 233.457993
   vertex 465.617004 444.048004 238.639999
  endloop
 endfacet
facet normal -0.104285792 0.9100402 0.40118739
  outer loop
   vertex 465.871002 447.859009 231.128998
   vertex 457.959991 449.265991 225.880997
   vertex 457.691986 445.894989 233.457993
  endloop
 endfacet
facet normal -0.101766713 0.911785364 0.397857934
  outer loop
   vertex 465.871002 447.859009 231.128998
   vertex 466.984985 451.290009 223.550995
   vertex 457.959991 449.265991 225.880997
  endloop
 endfacet
facet normal -0.0664446726 0.912599623 0.403419107
  outer loop
   vertex 474.02301 449.516998 228.720993
   vertex 466.984985 451.290009 223.550995
   vertex 465.871002 447.859009 231.128998
  endloop
 endfacet
facet normal -0.026046535 0.934188366 0.355828136
  outer loop
   vertex 474.02301 449.516998 228.720993
   vertex 475.375 452.618988 220.675995
   vertex 466.984985 451.290009 223.550995
  endloop
 endfacet
facet normal 0.107035398 0.921513021 0.373305798
  outer loop
   vertex 481.558014 449.881012 225.662003
   vertex 475.375 452.618988 220.675995
   vertex 474.02301 449.516998 228.720993
  endloop
 endfacet
facet normal 0.293056577 0.943496823 0.154698282
  outer loop
   vertex 481.558014 449.881012 225.662003
   vertex 482.888 450.755005 217.811996
   vertex 475.375 452.618988 220.675995
  endloop
 endfacet
facet normal 0.909176528 0.367929071 0.195003152
  outer loop
   vertex 484.548004 443.348999 224.046005
   vertex 482.888 450.755005 217.811996
   vertex 481.558014 449.881012 225.662003
  endloop
 endfacet
facet normal 0.950810432 -0.0448830053 -0.306504488
  outer loop
   vertex 484.548004 443.348999 224.046005
   vertex 482.078003 439.536987 216.942001
   vertex 482.888 450.755005 217.811996
  endloop
 endfacet
facet normal 0.955504954 -0.170363039 -0.24080424
  outer loop
   vertex 482.825012 434.932007 223.164001
   vertex 482.078003 439.536987 216.942001
   vertex 484.548004 443.348999 224.046005
  endloop
 endfacet
facet normal 0.484122723 -0.674526393 -0.557350338
  outer loop
   vertex 482.825012 434.932007 223.164001
   vertex 475.470001 435.218994 216.427994
   vertex 482.078003 439.536987 216.942001
  endloop
 endfacet
facet normal 0.521986783 -0.610220194 -0.595953941
  outer loop
   vertex 482.825012 434.932007 223.164001
   vertex 476.889008 430.410004 222.595001
   vertex 475.470001 435.218994 216.427994
  endloop
 endfacet
facet normal 0.515484214 -0.599649549 -0.612124503
  outer loop
   vertex 482.009003 428.855988 228.429001
   vertex 476.889008 430.410004 222.595001
   vertex 482.825012 434.932007 223.164001
  endloop
 endfacet
facet normal 0.384896368 -0.750210404 -0.537623644
  outer loop
   vertex 482.009003 428.855988 228.429001
   vertex 473.653015 425.109985 227.673996
   vertex 476.889008 430.410004 222.595001
  endloop
 endfacet
facet normal 0.359508932 -0.671302378 -0.648156226
  outer loop
   vertex 482.009003 428.855988 228.429001
   vertex 478.90799 422.415009 233.380005
   vertex 473.653015 425.109985 227.673996
  endloop
 endfacet
facet normal 0.674420595 -0.625838578 -0.391768992
  outer loop
   vertex 484.786011 427.537994 235.315002
   vertex 478.90799 422.415009 233.380005
   vertex 482.009003 428.855988 228.429001
  endloop
 endfacet
facet normal 0.647811532 -0.54052031 -0.53682214
  outer loop
   vertex 484.348999 421.971008 240.393005
   vertex 478.90799 422.415009 233.380005
   vertex 484.786011 427.537994 235.315002
  endloop
 endfacet
facet normal 0.581142008 -0.648296475 -0.491920352
  outer loop
   vertex 484.348999 421.971008 240.393005
   vertex 478.194 417.138 239.490997
   vertex 478.90799 422.415009 233.380005
  endloop
 endfacet
facet normal 0.588350475 -0.662854314 -0.463106811
  outer loop
   vertex 484.709991 417.78299 246.845993
   vertex 478.194 417.138 239.490997
   vertex 484.348999 421.971008 240.393005
  endloop
 endfacet
facet normal 0.595537305 -0.651124179 -0.470502526
  outer loop
   vertex 484.709991 417.78299 246.845993
   vertex 478.199005 412.437012 246.003006
   vertex 478.194 417.138 239.490997
  endloop
 endfacet
facet normal 0.562437177 -0.594364345 -0.574800372
  outer loop
   vertex 484.709991 417.78299 246.845993
   vertex 483.808014 411.713013 252.240005
   vertex 478.199005 412.437012 246.003006
  endloop
 endfacet
facet normal 0.984549642 -0.172589108 -0.0295795482
  outer loop
   vertex 484.709991 417.78299 246.845993
   vertex 485.071991 418.091003 257.097992
   vertex 483.808014 411.713013 252.240005
  endloop
 endfacet
facet normal 0.998141408 0.0486460701 -0.0367060266
  outer loop
   vertex 484.583008 425.470001 253.580002
   vertex 485.071991 418.091003 257.097992
   vertex 484.709991 417.78299 246.845993
  endloop
 endfacet
facet normal 0.863001525 0.262874633 0.431422412
  outer loop
   vertex 484.583008 425.470001 253.580002
   vertex 481.372009 424.135986 260.81601
   vertex 485.071991 418.091003 257.097992
  endloop
 endfacet
facet normal 0.694590867 0.586660028 0.416381419
  outer loop
   vertex 477.149994 429.765015 259.928009
   vertex 481.372009 424.135986 260.81601
   vertex 484.583008 425.470001 253.580002
  endloop
 endfacet
facet normal 0.622734249 0.554208875 0.552317441
  outer loop
   vertex 477.149994 429.765015 259.928009
   vertex 475.575012 424.743011 266.743011
   vertex 481.372009 424.135986 260.81601
  endloop
 endfacet
facet normal 0.103119805 0.789210081 0.605403781
  outer loop
   vertex 477.149994 429.765015 259.928009
   vertex 467.914001 429.096985 262.372009
   vertex 475.575012 424.743011 266.743011
  endloop
 endfacet
facet normal 0.0948130414 0.809413731 0.579534233
  outer loop
   vertex 470.990997 433.233002 256.09201
   vertex 467.914001 429.096985 262.372009
   vertex 477.149994 429.765015 259.928009
  endloop
 endfacet
facet normal 0.00212412747 0.834666729 0.550751209
  outer loop
   vertex 470.990997 433.233002 256.09201
   vertex 459.921997 431.761993 258.364014
   vertex 467.914001 429.096985 262.372009
  endloop
 endfacet
facet normal -0.015629733 0.836145937 0.548284292
  outer loop
   vertex 456.007996 437.294006 249.815994
   vertex 459.921997 431.761993 258.364014
   vertex 464.075012 435.653992 252.546997
  endloop
 endfacet
facet normal 0.00431534229 0.829691529 0.558205426
  outer loop
   vertex 464.075012 435.653992 252.546997
   vertex 459.921997 431.761993 258.364014
   vertex 470.990997 433.233002 256.09201
  endloop
 endfacet
facet normal -0.0594602711 0.871321738 0.487096399
  outer loop
   vertex 457.675995 441.903015 241.774994
   vertex 449.734985 440.238007 243.783997
   vertex 456.007996 437.294006 249.815994
  endloop
 endfacet
facet normal -0.0402233526 0.88082546 0.471729338
  outer loop
   vertex 449.734985 440.238007 243.783997
   vertex 445.503998 436.959991 249.544006
   vertex 456.007996 437.294006 249.815994
  endloop
 endfacet
facet normal 0.00572455768 0.840707779 0.541458786
  outer loop
   vertex 456.007996 437.294006 249.815994
   vertex 451.046997 433.438995 255.854004
   vertex 459.921997 431.761993 258.364014
  endloop
 endfacet
facet normal -0.040553648 0.856948435 0.513804197
  outer loop
   vertex 445.503998 436.959991 249.544006
   vertex 451.046997 433.438995 255.854004
   vertex 456.007996 437.294006 249.815994
  endloop
 endfacet
facet normal -0.0912509039 0.913525522 0.396414429
  outer loop
   vertex 457.675995 441.903015 241.774994
   vertex 450.203003 443.688995 235.938995
   vertex 449.734985 440.238007 243.783997
  endloop
 endfacet
facet normal -0.121392377 0.894953728 0.429327041
  outer loop
   vertex 457.691986 445.894989 233.457993
   vertex 450.203003 443.688995 235.938995
   vertex 457.675995 441.903015 241.774994
  endloop
 endfacet
facet normal -0.233574897 0.960814357 0.149260014
  outer loop
   vertex 457.691986 445.894989 233.457993
   vertex 450.02301 445.053009 226.876999
   vertex 450.203003 443.688995 235.938995
  endloop
 endfacet
facet normal -0.401667744 0.841906428 0.360356271
  outer loop
   vertex 457.959991 449.265991 225.880997
   vertex 450.02301 445.053009 226.876999
   vertex 457.691986 445.894989 233.457993
  endloop
 endfacet
facet normal -0.468759567 0.883325338 0.000908476417
  outer loop
   vertex 457.959991 449.265991 225.880997
   vertex 453.875 447.105011 219.257996
   vertex 450.02301 445.053009 226.876999
  endloop
 endfacet
facet normal -0.605080485 0.787637234 0.116211653
  outer loop
   vertex 457.959991 449.265991 225.880997
   vertex 460.558014 452.364014 218.410995
   vertex 453.875 447.105011 219.257996
  endloop
 endfacet
facet normal -0.119887032 0.931114137 0.344461203
  outer loop
   vertex 466.984985 451.290009 223.550995
   vertex 460.558014 452.364014 218.410995
   vertex 457.959991 449.265991 225.880997
  endloop
 endfacet
facet normal -0.0937696174 0.944575787 0.314617068
  outer loop
   vertex 466.984985 451.290009 223.550995
   vertex 469.123993 454.118988 215.695007
   vertex 460.558014 452.364014 218.410995
  endloop
 endfacet
facet normal -0.0364201032 0.943351209 0.32979098
  outer loop
   vertex 475.375 452.618988 220.675995
   vertex 469.123993 454.118988 215.695007
   vertex 466.984985 451.290009 223.550995
  endloop
 endfacet
facet normal 0.0013120115 0.957976758 0.286842763
  outer loop
   vertex 475.375 452.618988 220.675995
   vertex 478.411987 455.085999 212.423004
   vertex 469.123993 454.118988 215.695007
  endloop
 endfacet
facet normal 0.358052641 0.850219607 0.385907888
  outer loop
   vertex 482.888 450.755005 217.811996
   vertex 478.411987 455.085999 212.423004
   vertex 475.375 452.618988 220.675995
  endloop
 endfacet
facet normal 0.727128088 0.684381068 -0.0539193004
  outer loop
   vertex 482.888 450.755005 217.811996
   vertex 482.721985 450.290985 209.684006
   vertex 478.411987 455.085999 212.423004
  endloop
 endfacet
facet normal 0.96797508 -0.25098744 -0.00544115249
  outer loop
   vertex 482.888 450.755005 217.811996
   vertex 480.963013 443.464996 211.626999
   vertex 482.721985 450.290985 209.684006
  endloop
 endfacet
facet normal 0.969121099 -0.0512700342 -0.241196364
  outer loop
   vertex 482.078003 439.536987 216.942001
   vertex 480.963013 443.464996 211.626999
   vertex 482.888 450.755005 217.811996
  endloop
 endfacet
facet normal 0.425869912 -0.682636678 -0.593836665
  outer loop
   vertex 482.078003 439.536987 216.942001
   vertex 473.540009 440.131989 210.134995
   vertex 480.963013 443.464996 211.626999
  endloop
 endfacet
facet normal 0.458570331 -0.626778185 -0.629970133
  outer loop
   vertex 475.470001 435.218994 216.427994
   vertex 473.540009 440.131989 210.134995
   vertex 482.078003 439.536987 216.942001
  endloop
 endfacet
facet normal 0.13756521 -0.759832561 -0.635397792
  outer loop
   vertex 475.470001 435.218994 216.427994
   vertex 466.570007 434.85199 214.940002
   vertex 473.540009 440.131989 210.134995
  endloop
 endfacet
facet normal 0.140595049 -0.739244401 -0.658597589
  outer loop
   vertex 475.470001 435.218994 216.427994
   vertex 469.238007 430.022003 220.931
   vertex 466.570007 434.85199 214.940002
  endloop
 endfacet
facet normal 0.179381967 -0.73556149 -0.653277397
  outer loop
   vertex 473.653015 425.109985 227.673996
   vertex 469.238007 430.022003 220.931
   vertex 476.889008 430.410004 222.595001
  endloop
 endfacet
facet normal 0.175414056 -0.756375015 -0.630179942
  outer loop
   vertex 476.889008 430.410004 222.595001
   vertex 469.238007 430.022003 220.931
   vertex 475.470001 435.218994 216.427994
  endloop
 endfacet
facet normal 0.117943943 -0.764298856 -0.633984625
  outer loop
   vertex 473.653015 425.109985 227.673996
   vertex 465.338013 425.130005 226.102997
   vertex 469.238007 430.022003 220.931
  endloop
 endfacet
facet normal 0.11829336 -0.762723565 -0.635814011
  outer loop
   vertex 473.653015 425.109985 227.673996
   vertex 470.643005 419.614014 233.707001
   vertex 465.338013 425.130005 226.102997
  endloop
 endfacet
facet normal 0.229539216 -0.749762237 -0.620619297
  outer loop
   vertex 478.194 417.138 239.490997
   vertex 470.643005 419.614014 233.707001
   vertex 478.90799 422.415009 233.380005
  endloop
 endfacet
facet normal 0.239200532 -0.774224937 -0.585968316
  outer loop
   vertex 478.90799 422.415009 233.380005
   vertex 470.643005 419.614014 233.707001
   vertex 473.653015 425.109985 227.673996
  endloop
 endfacet
facet normal 0.215156659 -0.764206588 -0.608026206
  outer loop
   vertex 478.194 417.138 239.490997
   vertex 470.781006 414.053986 240.744003
   vertex 470.643005 419.614014 233.707001
  endloop
 endfacet
facet normal 0.231831342 -0.788629949 -0.569488406
  outer loop
   vertex 478.199005 412.437012 246.003006
   vertex 470.781006 414.053986 240.744003
   vertex 478.194 417.138 239.490997
  endloop
 endfacet
facet normal 0.207954958 -0.813309848 -0.54339838
  outer loop
   vertex 478.199005 412.437012 246.003006
   vertex 470.31601 409.175995 247.867004
   vertex 470.781006 414.053986 240.744003
  endloop
 endfacet
facet normal 0.198111638 -0.801455557 -0.564287841
  outer loop
   vertex 478.199005 412.437012 246.003006
   vertex 476.690002 407.283997 252.792007
   vertex 470.31601 409.175995 247.867004
  endloop
 endfacet
facet normal 0.436140388 -0.760828078 -0.480543673
  outer loop
   vertex 483.808014 411.713013 252.240005
   vertex 476.690002 407.283997 252.792007
   vertex 478.199005 412.437012 246.003006
  endloop
 endfacet
facet normal 0.382235974 -0.6907987 -0.61375308
  outer loop
   vertex 483.808014 411.713013 252.240005
   vertex 482.029999 405.959015 257.609009
   vertex 476.690002 407.283997 252.792007
  endloop
 endfacet
facet normal 0.897544861 -0.415369511 -0.147923514
  outer loop
   vertex 483.808014 411.713013 252.240005
   vertex 484.877014 410.799988 261.290009
   vertex 482.029999 405.959015 257.609009
  endloop
 endfacet
facet normal 0.986984372 -0.0991807282 -0.126589864
  outer loop
   vertex 485.071991 418.091003 257.097992
   vertex 484.877014 410.799988 261.290009
   vertex 483.808014 411.713013 252.240005
  endloop
 endfacet
facet normal 0.682867527 0.369828969 0.630014658
  outer loop
   vertex 475.575012 424.743011 266.743011
   vertex 481.149994 417.494995 264.954987
   vertex 481.372009 424.135986 260.81601
  endloop
 endfacet
facet normal 0.858540416 0.250230044 0.447541386
  outer loop
   vertex 481.372009 424.135986 260.81601
   vertex 481.149994 417.494995 264.954987
   vertex 485.071991 418.091003 257.097992
  endloop
 endfacet
facet normal 0.862498581 0.234707579 0.448339731
  outer loop
   vertex 485.071991 418.091003 257.097992
   vertex 481.149994 417.494995 264.954987
   vertex 484.877014 410.799988 261.290009
  endloop
 endfacet
facet normal 0.645646453 0.326299965 0.690412164
  outer loop
   vertex 475.575012 424.743011 266.743011
   vertex 475.584015 417.199005 270.299988
   vertex 481.149994 417.494995 264.954987
  endloop
 endfacet
facet normal 0.134524807 0.422727227 0.896216929
  outer loop
   vertex 475.575012 424.743011 266.743011
   vertex 467.591003 423.351013 268.597992
   vertex 475.584015 417.199005 270.299988
  endloop
 endfacet
facet normal 0.0297672506 0.733771026 0.678744435
  outer loop
   vertex 467.914001 429.096985 262.372009
   vertex 467.591003 423.351013 268.597992
   vertex 475.575012 424.743011 266.743011
  endloop
 endfacet
facet normal -0.0504711866 0.735233843 0.675931811
  outer loop
   vertex 467.914001 429.096985 262.372009
   vertex 460.157013 425.640991 265.552002
   vertex 467.591003 423.351013 268.597992
  endloop
 endfacet
facet normal -0.0721502528 0.758203745 0.648013413
  outer loop
   vertex 459.921997 431.761993 258.364014
   vertex 460.157013 425.640991 265.552002
   vertex 467.914001 429.096985 262.372009
  endloop
 endfacet
facet normal -0.0516069755 0.75950563 0.648450434
  outer loop
   vertex 459.921997 431.761993 258.364014
   vertex 453.118011 427.700989 262.57901
   vertex 460.157013 425.640991 265.552002
  endloop
 endfacet
facet normal -0.0432046391 0.753404915 0.656135976
  outer loop
   vertex 451.046997 433.438995 255.854004
   vertex 453.118011 427.700989 262.57901
   vertex 459.921997 431.761993 258.364014
  endloop
 endfacet
facet normal -0.287570387 0.882889807 0.371226221
  outer loop
   vertex 450.203003 443.688995 235.938995
   vertex 441.994995 439.204987 240.244995
   vertex 449.734985 440.238007 243.783997
  endloop
 endfacet
facet normal -0.267774016 0.908643186 0.320413262
  outer loop
   vertex 449.734985 440.238007 243.783997
   vertex 441.994995 439.204987 240.244995
   vertex 445.503998 436.959991 249.544006
  endloop
 endfacet
facet normal -0.265950352 0.909359992 0.319898158
  outer loop
   vertex 441.994995 439.204987 240.244995
   vertex 437.38501 435.585999 246.699997
   vertex 445.503998 436.959991 249.544006
  endloop
 endfacet
facet normal -0.0576211177 0.849404395 0.524587452
  outer loop
   vertex 445.503998 436.959991 249.544006
   vertex 441.552002 432.847992 255.768005
   vertex 451.046997 433.438995 255.854004
  endloop
 endfacet
facet normal -0.286119819 0.872960985 0.395062685
  outer loop
   vertex 437.38501 435.585999 246.699997
   vertex 441.552002 432.847992 255.768005
   vertex 445.503998 436.959991 249.544006
  endloop
 endfacet
facet normal -0.0469236858 0.642588675 0.76477313
  outer loop
   vertex 441.552002 432.847992 255.768005
   vertex 445.888 427.734009 260.330994
   vertex 451.046997 433.438995 255.854004
  endloop
 endfacet
facet normal -0.20540306 0.712369621 0.671073079
  outer loop
   vertex 451.046997 433.438995 255.854004
   vertex 445.888 427.734009 260.330994
   vertex 453.118011 427.700989 262.57901
  endloop
 endfacet
facet normal -0.492122531 0.869930923 -0.0321810655
  outer loop
   vertex 450.203003 443.688995 235.938995
   vertex 444.562988 440.367004 232.386002
   vertex 441.994995 439.204987 240.244995
  endloop
 endfacet
facet normal -0.564191401 0.814724207 0.133837804
  outer loop
   vertex 450.02301 445.053009 226.876999
   vertex 444.562988 440.367004 232.386002
   vertex 450.203003 443.688995 235.938995
  endloop
 endfacet
facet normal -0.797922313 0.373985678 -0.472709924
  outer loop
   vertex 450.02301 445.053009 226.876999
   vertex 446.970001 436.484009 225.251007
   vertex 444.562988 440.367004 232.386002
  endloop
 endfacet
facet normal -0.848427832 0.373457968 -0.375099152
  outer loop
   vertex 450.02301 445.053009 226.876999
   vertex 451.367004 439.804993 218.612
   vertex 446.970001 436.484009 225.251007
  endloop
 endfacet
facet normal -0.874840736 0.331794441 -0.352939278
  outer loop
   vertex 453.875 447.105011 219.257996
   vertex 451.367004 439.804993 218.612
   vertex 450.02301 445.053009 226.876999
  endloop
 endfacet
facet normal -0.803309023 0.320412099 -0.502026618
  outer loop
   vertex 453.875 447.105011 219.257996
   vertex 456.925995 441.769989 210.970993
   vertex 451.367004 439.804993 218.612
  endloop
 endfacet
facet normal -0.872274041 0.196643874 -0.447737813
  outer loop
   vertex 453.875 447.105011 219.257996
   vertex 457.880005 449.112 212.337006
   vertex 456.925995 441.769989 210.970993
  endloop
 endfacet
facet normal -0.623238921 0.769866407 -0.137400672
  outer loop
   vertex 460.558014 452.364014 218.410995
   vertex 457.880005 449.112 212.337006
   vertex 453.875 447.105011 219.257996
  endloop
 endfacet
facet normal -0.711829484 0.699717164 -0.060783796
  outer loop
   vertex 460.558014 452.364014 218.410995
   vertex 463.191986 454.29599 209.804993
   vertex 457.880005 449.112 212.337006
  endloop
 endfacet
facet normal -0.144224107 0.974033415 0.174523145
  outer loop
   vertex 469.123993 454.118988 215.695007
   vertex 463.191986 454.29599 209.804993
   vertex 460.558014 452.364014 218.410995
  endloop
 endfacet
facet normal -0.188091427 0.957604408 0.218209565
  outer loop
   vertex 469.123993 454.118988 215.695007
   vertex 471.588013 456.415009 207.742996
   vertex 463.191986 454.29599 209.804993
  endloop
 endfacet
facet normal -0.00258617476 0.960964322 0.276660174
  outer loop
   vertex 478.411987 455.085999 212.423004
   vertex 471.588013 456.415009 207.742996
   vertex 469.123993 454.118988 215.695007
  endloop
 endfacet
facet normal 0.223211914 0.973537087 -0.0490101166
  outer loop
   vertex 478.411987 455.085999 212.423004
   vertex 480.126007 454.278992 204.199005
   vertex 471.588013 456.415009 207.742996
  endloop
 endfacet
facet normal 0.767264664 0.633843303 0.0977115855
  outer loop
   vertex 482.721985 450.290985 209.684006
   vertex 480.126007 454.278992 204.199005
   vertex 478.411987 455.085999 212.423004
  endloop
 endfacet
facet normal 0.750150383 -0.312909752 -0.582547784
  outer loop
   vertex 482.721985 450.290985 209.684006
   vertex 477.489014 446.587006 204.934998
   vertex 480.126007 454.278992 204.199005
  endloop
 endfacet
facet normal 0.430957139 -0.711134434 -0.555485189
  outer loop
   vertex 473.540009 440.131989 210.134995
   vertex 477.489014 446.587006 204.934998
   vertex 480.963013 443.464996 211.626999
  endloop
 endfacet
facet normal 0.753320634 -0.352213085 -0.555386305
  outer loop
   vertex 480.963013 443.464996 211.626999
   vertex 477.489014 446.587006 204.934998
   vertex 482.721985 450.290985 209.684006
  endloop
 endfacet
facet normal 0.0608587936 -0.71456188 -0.696920037
  outer loop
   vertex 466.570007 434.85199 214.940002
   vertex 464.674988 440.165985 209.326004
   vertex 473.540009 440.131989 210.134995
  endloop
 endfacet
facet normal 0.0599354357 -0.723993301 -0.687198281
  outer loop
   vertex 464.674988 440.165985 209.326004
   vertex 469.462006 445.628998 203.988007
   vertex 473.540009 440.131989 210.134995
  endloop
 endfacet
facet normal 0.16541405 -0.678089023 -0.716123939
  outer loop
   vertex 473.540009 440.131989 210.134995
   vertex 469.462006 445.628998 203.988007
   vertex 477.489014 446.587006 204.934998
  endloop
 endfacet
facet normal -0.00608097157 -0.727255464 -0.686339915
  outer loop
   vertex 466.570007 434.85199 214.940002
   vertex 457.006989 435.401001 214.442993
   vertex 464.674988 440.165985 209.326004
  endloop
 endfacet
facet normal -0.716290355 -0.340996623 -0.608809888
  outer loop
   vertex 456.925995 441.769989 210.970993
   vertex 457.006989 435.401001 214.442993
   vertex 451.367004 439.804993 218.612
  endloop
 endfacet
facet normal -0.274725348 -0.46291402 -0.842755377
  outer loop
   vertex 464.674988 440.165985 209.326004
   vertex 457.006989 435.401001 214.442993
   vertex 456.925995 441.769989 210.970993
  endloop
 endfacet
facet normal -0.00387549866 -0.707380712 -0.706822157
  outer loop
   vertex 466.570007 434.85199 214.940002
   vertex 460.553986 429.772003 220.057007
   vertex 457.006989 435.401001 214.442993
  endloop
 endfacet
facet normal 0.0870851055 -0.75569123 -0.649112463
  outer loop
   vertex 465.338013 425.130005 226.102997
   vertex 460.553986 429.772003 220.057007
   vertex 469.238007 430.022003 220.931
  endloop
 endfacet
facet normal 0.0870357901 -0.756256163 -0.648460805
  outer loop
   vertex 469.238007 430.022003 220.931
   vertex 460.553986 429.772003 220.057007
   vertex 466.570007 434.85199 214.940002
  endloop
 endfacet
facet normal 0.0893690065 -0.754594266 -0.650077403
  outer loop
   vertex 465.338013 425.130005 226.102997
   vertex 455.673004 424.653015 225.328003
   vertex 460.553986 429.772003 220.057007
  endloop
 endfacet
facet normal 0.0888622925 -0.765882492 -0.636810422
  outer loop
   vertex 465.338013 425.130005 226.102997
   vertex 462.19101 420.832001 230.832993
   vertex 455.673004 424.653015 225.328003
  endloop
 endfacet
facet normal 0.103451855 -0.769416213 -0.630314529
  outer loop
   vertex 470.643005 419.614014 233.707001
   vertex 462.19101 420.832001 230.832993
   vertex 465.338013 425.130005 226.102997
  endloop
 endfacet
facet normal 0.10489884 -0.766674876 -0.633408129
  outer loop
   vertex 470.643005 419.614014 233.707001
   vertex 463.320007 415.769989 237.147003
   vertex 462.19101 420.832001 230.832993
  endloop
 endfacet
facet normal 0.11853385 -0.777976334 -0.617010951
  outer loop
   vertex 470.781006 414.053986 240.744003
   vertex 463.320007 415.769989 237.147003
   vertex 470.643005 419.614014 233.707001
  endloop
 endfacet
facet normal 0.110018171 -0.78891927 -0.604567945
  outer loop
   vertex 470.781006 414.053986 240.744003
   vertex 463.221008 410.595001 243.882004
   vertex 463.320007 415.769989 237.147003
  endloop
 endfacet
facet normal 0.146162689 -0.820632994 -0.552447259
  outer loop
   vertex 470.31601 409.175995 247.867004
   vertex 463.221008 410.595001 243.882004
   vertex 470.781006 414.053986 240.744003
  endloop
 endfacet
facet normal 0.143646821 -0.823413908 -0.548958242
  outer loop
   vertex 470.31601 409.175995 247.867004
   vertex 462.852997 405.798004 250.981003
   vertex 463.221008 410.595001 243.882004
  endloop
 endfacet
facet normal 0.146202654 -0.825515866 -0.545113087
  outer loop
   vertex 470.31601 409.175995 247.867004
   vertex 469.921997 404.265991 255.197006
   vertex 462.852997 405.798004 250.981003
  endloop
 endfacet
facet normal 0.174302712 -0.822415948 -0.541526198
  outer loop
   vertex 476.690002 407.283997 252.792007
   vertex 469.921997 404.265991 255.197006
   vertex 470.31601 409.175995 247.867004
  endloop
 endfacet
facet normal 0.178302109 -0.825984836 -0.534749925
  outer loop
   vertex 476.690002 407.283997 252.792007
   vertex 476.019989 401.559998 261.410004
   vertex 469.921997 404.265991 255.197006
  endloop
 endfacet
facet normal 0.266444266 -0.812306225 -0.51881218
  outer loop
   vertex 482.029999 405.959015 257.609009
   vertex 476.019989 401.559998 261.410004
   vertex 476.690002 407.283997 252.792007
  endloop
 endfacet
facet normal 0.38128823 -0.84496963 -0.375027418
  outer loop
   vertex 482.029999 405.959015 257.609009
   vertex 482.959015 403.290009 264.566986
   vertex 476.019989 401.559998 261.410004
  endloop
 endfacet
facet normal 0.905654967 -0.341164649 -0.251785278
  outer loop
   vertex 484.877014 410.799988 261.290009
   vertex 482.959015 403.290009 264.566986
   vertex 482.029999 405.959015 257.609009
  endloop
 endfacet
facet normal 0.868327498 -0.00535061443 0.495962471
  outer loop
   vertex 484.877014 410.799988 261.290009
   vertex 480.696991 409.843994 268.597992
   vertex 482.959015 403.290009 264.566986
  endloop
 endfacet
facet normal 0.654020667 0.293296367 0.697304964
  outer loop
   vertex 475.584015 417.199005 270.299988
   vertex 480.696991 409.843994 268.597992
   vertex 481.149994 417.494995 264.954987
  endloop
 endfacet
facet normal 0.841044068 0.191164434 0.506064236
  outer loop
   vertex 481.149994 417.494995 264.954987
   vertex 480.696991 409.843994 268.597992
   vertex 484.877014 410.799988 261.290009
  endloop
 endfacet
facet normal 0.356883585 0.0320544802 0.933598757
  outer loop
   vertex 475.584015 417.199005 270.299988
   vertex 473.794006 408.265015 271.290985
   vertex 480.696991 409.843994 268.597992
  endloop
 endfacet
facet normal -0.109395735 0.131212294 0.985299885
  outer loop
   vertex 475.584015 417.199005 270.299988
   vertex 467.928986 415.066986 269.734009
   vertex 473.794006 408.265015 271.290985
  endloop
 endfacet
facet normal -0.109251328 0.130670413 0.985387921
  outer loop
   vertex 467.591003 423.351013 268.597992
   vertex 467.928986 415.066986 269.734009
   vertex 475.584015 417.199005 270.299988
  endloop
 endfacet
facet normal -0.323918521 0.115550682 0.939002037
  outer loop
   vertex 467.591003 423.351013 268.597992
   vertex 460.431 416.875 266.924988
   vertex 467.928986 415.066986 269.734009
  endloop
 endfacet
facet normal -0.339732021 0.135163814 0.930759311
  outer loop
   vertex 460.157013 425.640991 265.552002
   vertex 460.431 416.875 266.924988
   vertex 467.591003 423.351013 268.597992
  endloop
 endfacet
facet normal -0.350630164 0.134210452 0.926847339
  outer loop
   vertex 460.157013 425.640991 265.552002
   vertex 452.709991 418.989014 263.697998
   vertex 460.431 416.875 266.924988
  endloop
 endfacet
facet normal -0.293612808 0.135296747 0.946301401
  outer loop
   vertex 445.888 427.734009 260.330994
   vertex 452.709991 418.989014 263.697998
   vertex 453.118011 427.700989 262.57901
  endloop
 endfacet
facet normal -0.351595759 0.135443419 0.926302075
  outer loop
   vertex 453.118011 427.700989 262.57901
   vertex 452.709991 418.989014 263.697998
   vertex 460.157013 425.640991 265.552002
  endloop
 endfacet
facet normal -0.821605027 0.469246566 -0.323686391
  outer loop
   vertex 441.994995 439.204987 240.244995
   vertex 438.485992 432.174011 238.959
   vertex 437.38501 435.585999 246.699997
  endloop
 endfacet
facet normal -0.77407676 0.464919478 -0.429715037
  outer loop
   vertex 441.994995 439.204987 240.244995
   vertex 442.402008 431.932007 231.643005
   vertex 438.485992 432.174011 238.959
  endloop
 endfacet
facet normal -0.863556683 0.259331346 -0.432454735
  outer loop
   vertex 446.970001 436.484009 225.251007
   vertex 442.402008 431.932007 231.643005
   vertex 444.562988 440.367004 232.386002
  endloop
 endfacet
facet normal -0.928294063 0.261141479 -0.264717251
  outer loop
   vertex 444.562988 440.367004 232.386002
   vertex 442.402008 431.932007 231.643005
   vertex 441.994995 439.204987 240.244995
  endloop
 endfacet
facet normal -0.875651479 0.38347432 -0.293567568
  outer loop
   vertex 438.485992 432.174011 238.959
   vertex 434.363007 427.449005 245.085007
   vertex 437.38501 435.585999 246.699997
  endloop
 endfacet
facet normal -0.373741955 0.826354146 0.421254992
  outer loop
   vertex 437.38501 435.585999 246.699997
   vertex 434.903992 431.235992 253.031998
   vertex 441.552002 432.847992 255.768005
  endloop
 endfacet
facet normal -0.924224079 0.365311116 -0.111164965
  outer loop
   vertex 434.363007 427.449005 245.085007
   vertex 434.903992 431.235992 253.031998
   vertex 437.38501 435.585999 246.699997
  endloop
 endfacet
facet normal -0.428169131 0.356024444 0.830612898
  outer loop
   vertex 434.903992 431.235992 253.031998
   vertex 438.294006 424.931 257.481995
   vertex 441.552002 432.847992 255.768005
  endloop
 endfacet
facet normal -0.44119063 0.359568119 0.822229624
  outer loop
   vertex 441.552002 432.847992 255.768005
   vertex 438.294006 424.931 257.481995
   vertex 445.888 427.734009 260.330994
  endloop
 endfacet
facet normal -0.36008662 0.0277517978 0.932506025
  outer loop
   vertex 438.294006 424.931 257.481995
   vertex 444.774994 418.567993 260.174011
   vertex 445.888 427.734009 260.330994
  endloop
 endfacet
facet normal -0.407147527 0.0338048823 0.912736595
  outer loop
   vertex 445.888 427.734009 260.330994
   vertex 444.774994 418.567993 260.174011
   vertex 452.709991 418.989014 263.697998
  endloop
 endfacet
facet normal -0.0673849434 -0.683837116 -0.726516426
  outer loop
   vertex 455.673004 424.653015 225.328003
   vertex 451.502991 431.483002 219.285995
   vertex 460.553986 429.772003 220.057007
  endloop
 endfacet
facet normal -0.629050672 -0.0729610175 -0.773932755
  outer loop
   vertex 457.006989 435.401001 214.442993
   vertex 451.502991 431.483002 219.285995
   vertex 451.367004 439.804993 218.612
  endloop
 endfacet
facet normal -0.818239093 -0.0596797392 -0.57177192
  outer loop
   vertex 451.367004 439.804993 218.612
   vertex 451.502991 431.483002 219.285995
   vertex 446.970001 436.484009 225.251007
  endloop
 endfacet
facet normal -0.0798063055 -0.728672385 -0.680196643
  outer loop
   vertex 460.553986 429.772003 220.057007
   vertex 451.502991 431.483002 219.285995
   vertex 457.006989 435.401001 214.442993
  endloop
 endfacet
facet normal -0.831490695 0.0586800799 -0.552430809
  outer loop
   vertex 446.970001 436.484009 225.251007
   vertex 447.019012 427.604004 224.233994
   vertex 442.402008 431.932007 231.643005
  endloop
 endfacet
facet normal -0.153129965 -0.705566466 -0.691901147
  outer loop
   vertex 455.673004 424.653015 225.328003
   vertex 447.019012 427.604004 224.233994
   vertex 451.502991 431.483002 219.285995
  endloop
 endfacet
facet normal -0.765559673 0.0690329075 -0.639650583
  outer loop
   vertex 451.502991 431.483002 219.285995
   vertex 447.019012 427.604004 224.233994
   vertex 446.970001 436.484009 225.251007
  endloop
 endfacet
facet normal -0.282529563 -0.58619231 -0.75931263
  outer loop
   vertex 456.925995 441.769989 210.970993
   vertex 461.67099 446.925995 205.225006
   vertex 464.674988 440.165985 209.326004
  endloop
 endfacet
facet normal -0.220838353 -0.575728297 -0.787253082
  outer loop
   vertex 464.674988 440.165985 209.326004
   vertex 461.67099 446.925995 205.225006
   vertex 469.462006 445.628998 203.988007
  endloop
 endfacet
facet normal -0.836711466 0.203327835 -0.508499444
  outer loop
   vertex 457.880005 449.112 212.337006
   vertex 461.67099 446.925995 205.225006
   vertex 456.925995 441.769989 210.970993
  endloop
 endfacet
facet normal -0.709723473 0.471660912 -0.523286343
  outer loop
   vertex 463.191986 454.29599 209.804993
   vertex 461.67099 446.925995 205.225006
   vertex 457.880005 449.112 212.337006
  endloop
 endfacet
facet normal -0.832948923 0.405730218 -0.376269937
  outer loop
   vertex 463.191986 454.29599 209.804993
   vertex 465.84201 453.34201 202.910004
   vertex 461.67099 446.925995 205.225006
  endloop
 endfacet
facet normal -0.188878968 -0.222332343 -0.956500411
  outer loop
   vertex 461.67099 446.925995 205.225006
   vertex 465.84201 453.34201 202.910004
   vertex 469.462006 445.628998 203.988007
  endloop
 endfacet
facet normal -0.292644799 0.92547673 -0.240524083
  outer loop
   vertex 471.588013 456.415009 207.742996
   vertex 465.84201 453.34201 202.910004
   vertex 463.191986 454.29599 209.804993
  endloop
 endfacet
facet normal -0.0217145402 0.855152726 -0.51792109
  outer loop
   vertex 471.588013 456.415009 207.742996
   vertex 473.643005 452.779999 201.654999
   vertex 465.84201 453.34201 202.910004
  endloop
 endfacet
facet normal -0.170174628 -0.214298561 -0.961829901
  outer loop
   vertex 465.84201 453.34201 202.910004
   vertex 473.643005 452.779999 201.654999
   vertex 469.462006 445.628998 203.988007
  endloop
 endfacet
facet normal 0.153414533 -0.38641268 -0.909477472
  outer loop
   vertex 469.462006 445.628998 203.988007
   vertex 473.643005 452.779999 201.654999
   vertex 477.489014 446.587006 204.934998
  endloop
 endfacet
facet normal 0.400262952 -0.222285658 -0.889032423
  outer loop
   vertex 477.489014 446.587006 204.934998
   vertex 473.643005 452.779999 201.654999
   vertex 480.126007 454.278992 204.199005
  endloop
 endfacet
facet normal 0.00233543548 0.858942926 -0.512066066
  outer loop
   vertex 480.126007 454.278992 204.199005
   vertex 473.643005 452.779999 201.654999
   vertex 471.588013 456.415009 207.742996
  endloop
 endfacet
facet normal -0.101810418 -0.5943138 -0.79776293
  outer loop
   vertex 455.673004 424.653015 225.328003
   vertex 448.94101 420.496002 229.283997
   vertex 447.019012 427.604004 224.233994
  endloop
 endfacet
facet normal 0.0863629654 -0.756632924 -0.648111105
  outer loop
   vertex 455.673004 424.653015 225.328003
   vertex 455.553009 418.011993 233.065002
   vertex 448.94101 420.496002 229.283997
  endloop
 endfacet
facet normal 0.1120959 -0.765421987 -0.633690536
  outer loop
   vertex 463.320007 415.769989 237.147003
   vertex 455.553009 418.011993 233.065002
   vertex 462.19101 420.832001 230.832993
  endloop
 endfacet
facet normal 0.103451774 -0.755527437 -0.646897197
  outer loop
   vertex 462.19101 420.832001 230.832993
   vertex 455.553009 418.011993 233.065002
   vertex 455.673004 424.653015 225.328003
  endloop
 endfacet
facet normal 0.109982595 -0.767915189 -0.631038904
  outer loop
   vertex 463.320007 415.769989 237.147003
   vertex 455.877991 412.561005 239.755005
   vertex 455.553009 418.011993 233.065002
  endloop
 endfacet
facet normal 0.128151074 -0.787323177 -0.603075027
  outer loop
   vertex 463.221008 410.595001 243.882004
   vertex 455.877991 412.561005 239.755005
   vertex 463.320007 415.769989 237.147003
  endloop
 endfacet
facet normal 0.122565299 -0.793511748 -0.596084595
  outer loop
   vertex 463.221008 410.595001 243.882004
   vertex 455.789001 407.372986 246.643005
   vertex 455.877991 412.561005 239.755005
  endloop
 endfacet
facet normal 0.153044984 -0.822469592 -0.547832966
  outer loop
   vertex 462.852997 405.798004 250.981003
   vertex 455.789001 407.372986 246.643005
   vertex 463.221008 410.595001 243.882004
  endloop
 endfacet
facet normal 0.149145454 -0.826432943 -0.54292196
  outer loop
   vertex 462.852997 405.798004 250.981003
   vertex 454.867004 402.652008 253.576004
   vertex 455.789001 407.372986 246.643005
  endloop
 endfacet
facet normal 0.155398399 -0.832770169 -0.53136158
  outer loop
   vertex 462.852997 405.798004 250.981003
   vertex 461.636993 401.208008 257.819
   vertex 454.867004 402.652008 253.576004
  endloop
 endfacet
facet normal 0.138371557 -0.83351475 -0.534889281
  outer loop
   vertex 469.921997 404.265991 255.197006
   vertex 461.636993 401.208008 257.819
   vertex 462.852997 405.798004 250.981003
  endloop
 endfacet
facet normal 0.152823627 -0.848481596 -0.506679296
  outer loop
   vertex 469.921997 404.265991 255.197006
   vertex 468.451996 400.096985 261.734985
   vertex 461.636993 401.208008 257.819
  endloop
 endfacet
facet normal 0.142212063 -0.848783016 -0.509257376
  outer loop
   vertex 476.019989 401.559998 261.410004
   vertex 468.451996 400.096985 261.734985
   vertex 469.921997 404.265991 255.197006
  endloop
 endfacet
facet normal 0.186722711 -0.980279148 -0.0647104606
  outer loop
   vertex 476.019989 401.559998 261.410004
   vertex 470.923004 400.138 268.243988
   vertex 468.451996 400.096985 261.734985
  endloop
 endfacet
facet normal 0.153205156 -0.984042406 -0.0904918909
  outer loop
   vertex 476.019989 401.559998 261.410004
   vertex 478.605011 401.205994 269.635986
   vertex 470.923004 400.138 268.243988
  endloop
 endfacet
facet normal -0.127963081 -0.308223099 0.942668557
  outer loop
   vertex 470.923004 400.138 268.243988
   vertex 478.605011 401.205994 269.635986
   vertex 473.794006 408.265015 271.290985
  endloop
 endfacet
facet normal 0.358282119 0.025376983 0.933268428
  outer loop
   vertex 473.794006 408.265015 271.290985
   vertex 478.605011 401.205994 269.635986
   vertex 480.696991 409.843994 268.597992
  endloop
 endfacet
facet normal 0.776262105 -0.113482773 0.620111883
  outer loop
   vertex 480.696991 409.843994 268.597992
   vertex 478.605011 401.205994 269.635986
   vertex 482.959015 403.290009 264.566986
  endloop
 endfacet
facet normal 0.296666712 -0.945544779 -0.133917615
  outer loop
   vertex 482.959015 403.290009 264.566986
   vertex 478.605011 401.205994 269.635986
   vertex 476.019989 401.559998 261.410004
  endloop
 endfacet
facet normal -0.299504161 -0.240369111 0.923320055
  outer loop
   vertex 473.794006 408.265015 271.290985
   vertex 465.428986 407.652008 268.417999
   vertex 470.923004 400.138 268.243988
  endloop
 endfacet
facet normal -0.359789342 -0.044103343 0.931990623
  outer loop
   vertex 460.431 416.875 266.924988
   vertex 465.428986 407.652008 268.417999
   vertex 467.928986 415.066986 269.734009
  endloop
 endfacet
facet normal -0.320326895 -0.0597913936 0.945418239
  outer loop
   vertex 467.928986 415.066986 269.734009
   vertex 465.428986 407.652008 268.417999
   vertex 473.794006 408.265015 271.290985
  endloop
 endfacet
facet normal -0.393376142 -0.0342903547 0.918737948
  outer loop
   vertex 452.709991 418.989014 263.697998
   vertex 457.321014 409.040985 265.300995
   vertex 460.431 416.875 266.924988
  endloop
 endfacet
facet normal -0.365519553 -0.0475978591 0.929585874
  outer loop
   vertex 460.431 416.875 266.924988
   vertex 457.321014 409.040985 265.300995
   vertex 465.428986 407.652008 268.417999
  endloop
 endfacet
facet normal -0.40315786 -0.04999182 0.91376394
  outer loop
   vertex 444.774994 418.567993 260.174011
   vertex 449.97699 410.339996 262.019012
   vertex 452.709991 418.989014 263.697998
  endloop
 endfacet
facet normal -0.414287448 -0.045551233 0.909005523
  outer loop
   vertex 452.709991 418.989014 263.697998
   vertex 449.97699 410.339996 262.019012
   vertex 457.321014 409.040985 265.300995
  endloop
 endfacet
facet normal -0.877215385 0.198979735 -0.436921299
  outer loop
   vertex 438.485992 432.174011 238.959
   vertex 437.493011 423.968994 237.216003
   vertex 434.363007 427.449005 245.085007
  endloop
 endfacet
facet normal -0.860401034 0.203391939 -0.467270553
  outer loop
   vertex 442.402008 431.932007 231.643005
   vertex 437.493011 423.968994 237.216003
   vertex 438.485992 432.174011 238.959
  endloop
 endfacet
facet normal -0.33959794 -0.604051352 -0.720968246
  outer loop
   vertex 448.94101 420.496002 229.283997
   vertex 442.255005 423.971985 229.520996
   vertex 447.019012 427.604004 224.233994
  endloop
 endfacet
facet normal -0.78771323 0.172224939 -0.591478169
  outer loop
   vertex 447.019012 427.604004 224.233994
   vertex 442.255005 423.971985 229.520996
   vertex 442.402008 431.932007 231.643005
  endloop
 endfacet
facet normal -0.840210915 0.154112622 -0.519898891
  outer loop
   vertex 442.402008 431.932007 231.643005
   vertex 442.255005 423.971985 229.520996
   vertex 437.493011 423.968994 237.216003
  endloop
 endfacet
facet normal -0.877183855 0.199064299 -0.436946124
  outer loop
   vertex 437.493011 423.968994 237.216003
   vertex 432.82901 419.097992 244.360001
   vertex 434.363007 427.449005 245.085007
  endloop
 endfacet
facet normal -0.964645565 0.257323116 -0.0569534823
  outer loop
   vertex 434.363007 427.449005 245.085007
   vertex 432.575989 422.335999 252.251007
   vertex 434.903992 431.235992 253.031998
  endloop
 endfacet
facet normal -0.975992858 0.188720345 -0.108731806
  outer loop
   vertex 432.82901 419.097992 244.360001
   vertex 432.575989 422.335999 252.251007
   vertex 434.363007 427.449005 245.085007
  endloop
 endfacet
facet normal -0.699384212 0.121126309 0.704407632
  outer loop
   vertex 434.903992 431.235992 253.031998
   vertex 432.575989 422.335999 252.251007
   vertex 438.294006 424.931 257.481995
  endloop
 endfacet
facet normal -0.434339166 -0.062223345 0.898597658
  outer loop
   vertex 438.294006 424.931 257.481995
   vertex 437.02301 416.401001 256.277008
   vertex 444.774994 418.567993 260.174011
  endloop
 endfacet
facet normal -0.674012721 -0.00392433116 0.738709331
  outer loop
   vertex 432.575989 422.335999 252.251007
   vertex 437.02301 416.401001 256.277008
   vertex 438.294006 424.931 257.481995
  endloop
 endfacet
facet normal -0.430170208 -0.0784574673 0.899331987
  outer loop
   vertex 437.02301 416.401001 256.277008
   vertex 442.833008 409.774994 258.477997
   vertex 444.774994 418.567993 260.174011
  endloop
 endfacet
facet normal -0.437980175 -0.0760441124 0.895762622
  outer loop
   vertex 444.774994 418.567993 260.174011
   vertex 442.833008 409.774994 258.477997
   vertex 449.97699 410.339996 262.019012
  endloop
 endfacet
facet normal -0.255321443 -0.432133287 -0.864911437
  outer loop
   vertex 448.94101 420.496002 229.283997
   vertex 441 417.332001 233.209
   vertex 442.255005 423.971985 229.520996
  endloop
 endfacet
facet normal -0.843052745 -0.130459487 -0.52176851
  outer loop
   vertex 442.255005 423.971985 229.520996
   vertex 441 417.332001 233.209
   vertex 437.493011 423.968994 237.216003
  endloop
 endfacet
facet normal -0.0226334687 -0.7554726 -0.654789209
  outer loop
   vertex 448.94101 420.496002 229.283997
   vertex 448.292999 414.665009 236.033997
   vertex 441 417.332001 233.209
  endloop
 endfacet
facet normal 0.0850104392 -0.758025706 -0.646660864
  outer loop
   vertex 455.553009 418.011993 233.065002
   vertex 448.292999 414.665009 236.033997
   vertex 448.94101 420.496002 229.283997
  endloop
 endfacet
facet normal 0.0964090303 -0.769331455 -0.631533444
  outer loop
   vertex 455.877991 412.561005 239.755005
   vertex 448.292999 414.665009 236.033997
   vertex 455.553009 418.011993 233.065002
  endloop
 endfacet
facet normal 0.0997722074 -0.765178263 -0.636040628
  outer loop
   vertex 455.877991 412.561005 239.755005
   vertex 448.626007 409.006989 242.893005
   vertex 448.292999 414.665009 236.033997
  endloop
 endfacet
facet normal 0.130862802 -0.792716503 -0.595378399
  outer loop
   vertex 455.789001 407.372986 246.643005
   vertex 448.626007 409.006989 242.893005
   vertex 455.877991 412.561005 239.755005
  endloop
 endfacet
facet normal 0.122333199 -0.802846611 -0.58349973
  outer loop
   vertex 455.789001 407.372986 246.643005
   vertex 447.845001 404.105011 249.473999
   vertex 448.626007 409.006989 242.893005
  endloop
 endfacet
facet normal 0.146395802 -0.826606572 -0.543405831
  outer loop
   vertex 454.867004 402.652008 253.576004
   vertex 447.845001 404.105011 249.473999
   vertex 455.789001 407.372986 246.643005
  endloop
 endfacet
facet normal -0.0688003972 -0.971605301 -0.226383746
  outer loop
   vertex 454.867004 402.652008 253.576004
   vertex 447.714996 402.115997 258.049988
   vertex 447.845001 404.105011 249.473999
  endloop
 endfacet
facet normal -0.40339759 -0.305336237 0.862577617
  outer loop
   vertex 442.833008 409.774994 258.477997
   vertex 447.714996 402.115997 258.049988
   vertex 449.97699 410.339996 262.019012
  endloop
 endfacet
facet normal -0.0109287454 -0.990627825 -0.136150852
  outer loop
   vertex 454.867004 402.652008 253.576004
   vertex 454.717987 401.514008 261.868011
   vertex 447.714996 402.115997 258.049988
  endloop
 endfacet
facet normal -0.478592604 -0.271368682 0.835049808
  outer loop
   vertex 447.714996 402.115997 258.049988
   vertex 454.717987 401.514008 261.868011
   vertex 449.97699 410.339996 262.019012
  endloop
 endfacet
facet normal -0.431428969 -0.24659428 0.867790461
  outer loop
   vertex 449.97699 410.339996 262.019012
   vertex 454.717987 401.514008 261.868011
   vertex 457.321014 409.040985 265.300995
  endloop
 endfacet
facet normal -0.123698361 -0.982802808 -0.137103319
  outer loop
   vertex 461.636993 401.208008 257.819
   vertex 454.717987 401.514008 261.868011
   vertex 454.867004 402.652008 253.576004
  endloop
 endfacet
facet normal -0.0511939675 -0.998616517 -0.0120114656
  outer loop
   vertex 461.636993 401.208008 257.819
   vertex 462.196991 401.087006 265.492004
   vertex 454.717987 401.514008 261.868011
  endloop
 endfacet
facet normal -0.434046507 -0.245265305 0.866861343
  outer loop
   vertex 454.717987 401.514008 261.868011
   vertex 462.196991 401.087006 265.492004
   vertex 457.321014 409.040985 265.300995
  endloop
 endfacet
facet normal -0.38215366 -0.212674916 0.899293065
  outer loop
   vertex 457.321014 409.040985 265.300995
   vertex 462.196991 401.087006 265.492004
   vertex 465.428986 407.652008 268.417999
  endloop
 endfacet
facet normal -0.158663705 -0.987324595 -0.00398991304
  outer loop
   vertex 468.451996 400.096985 261.734985
   vertex 462.196991 401.087006 265.492004
   vertex 461.636993 401.208008 257.819
  endloop
 endfacet
facet normal -0.124641128 -0.99075532 0.0535580292
  outer loop
   vertex 470.923004 400.138 268.243988
   vertex 462.196991 401.087006 265.492004
   vertex 468.451996 400.096985 261.734985
  endloop
 endfacet
facet normal -0.315892637 -0.252151668 0.914675534
  outer loop
   vertex 465.428986 407.652008 268.417999
   vertex 462.196991 401.087006 265.492004
   vertex 470.923004 400.138 268.243988
  endloop
 endfacet
facet normal -0.864898682 0.109797448 -0.489790589
  outer loop
   vertex 437.493011 423.968994 237.216003
   vertex 435.748993 415.088989 238.304993
   vertex 432.82901 419.097992 244.360001
  endloop
 endfacet
facet normal -0.706903398 0.0523299389 -0.705371618
  outer loop
   vertex 441 417.332001 233.209
   vertex 435.748993 415.088989 238.304993
   vertex 437.493011 423.968994 237.216003
  endloop
 endfacet
facet normal -0.884310186 0.0559959188 -0.463529885
  outer loop
   vertex 435.748993 415.088989 238.304993
   vertex 432.73999 409.546997 243.376007
   vertex 432.82901 419.097992 244.360001
  endloop
 endfacet
facet normal -0.972992003 0.0326105766 -0.228523716
  outer loop
   vertex 432.73999 409.546997 243.376007
   vertex 431.10199 413.31601 250.888
   vertex 432.82901 419.097992 244.360001
  endloop
 endfacet
facet normal -0.979007959 0.175616637 -0.10345149
  outer loop
   vertex 432.82901 419.097992 244.360001
   vertex 431.10199 413.31601 250.888
   vertex 432.575989 422.335999 252.251007
  endloop
 endfacet
facet normal -0.672552347 -0.00192261778 0.740047038
  outer loop
   vertex 432.575989 422.335999 252.251007
   vertex 431.10199 413.31601 250.888
   vertex 437.02301 416.401001 256.277008
  endloop
 endfacet
facet normal -0.439313501 -0.0882496834 0.893988609
  outer loop
   vertex 437.02301 416.401001 256.277008
   vertex 435.649994 408.152008 254.787994
   vertex 442.833008 409.774994 258.477997
  endloop
 endfacet
facet normal -0.666135311 -0.0236850958 0.745454729
  outer loop
   vertex 431.10199 413.31601 250.888
   vertex 435.649994 408.152008 254.787994
   vertex 437.02301 416.401001 256.277008
  endloop
 endfacet
facet normal -0.329512417 -0.440409303 0.83514142
  outer loop
   vertex 435.649994 408.152008 254.787994
   vertex 440.690002 402.591003 253.843994
   vertex 442.833008 409.774994 258.477997
  endloop
 endfacet
facet normal -0.496917427 -0.360848069 0.789215922
  outer loop
   vertex 442.833008 409.774994 258.477997
   vertex 440.690002 402.591003 253.843994
   vertex 447.714996 402.115997 258.049988
  endloop
 endfacet
facet normal 0.068630673 -0.972075224 -0.224409476
  outer loop
   vertex 447.714996 402.115997 258.049988
   vertex 440.690002 402.591003 253.843994
   vertex 447.845001 404.105011 249.473999
  endloop
 endfacet
facet normal -0.33885777 -0.681173444 -0.648982406
  outer loop
   vertex 441 417.332001 233.209
   vertex 441.562988 410.700012 239.876007
   vertex 435.748993 415.088989 238.304993
  endloop
 endfacet
facet normal -0.231783777 -0.585182846 -0.777069747
  outer loop
   vertex 435.748993 415.088989 238.304993
   vertex 441.562988 410.700012 239.876007
   vertex 432.73999 409.546997 243.376007
  endloop
 endfacet
facet normal 0.0143746026 -0.708284855 -0.705780387
  outer loop
   vertex 448.292999 414.665009 236.033997
   vertex 441.562988 410.700012 239.876007
   vertex 441 417.332001 233.209
  endloop
 endfacet
facet normal 0.0881609693 -0.766301572 -0.636403561
  outer loop
   vertex 448.626007 409.006989 242.893005
   vertex 441.562988 410.700012 239.876007
   vertex 448.292999 414.665009 236.033997
  endloop
 endfacet
facet normal 0.0954554752 -0.755927324 -0.647658944
  outer loop
   vertex 448.626007 409.006989 242.893005
   vertex 440.222992 405.397003 245.867996
   vertex 441.562988 410.700012 239.876007
  endloop
 endfacet
facet normal -0.00297742034 -0.943376482 -0.331710637
  outer loop
   vertex 440.690002 402.591003 253.843994
   vertex 440.222992 405.397003 245.867996
   vertex 447.845001 404.105011 249.473999
  endloop
 endfacet
facet normal 0.138886154 -0.802022815 -0.58092171
  outer loop
   vertex 447.845001 404.105011 249.473999
   vertex 440.222992 405.397003 245.867996
   vertex 448.626007 409.006989 242.893005
  endloop
 endfacet
facet normal -0.173620611 -0.717884541 -0.674164414
  outer loop
   vertex 441.562988 410.700012 239.876007
   vertex 440.222992 405.397003 245.867996
   vertex 432.73999 409.546997 243.376007
  endloop
 endfacet
facet normal -0.977374792 -0.167603314 -0.129025951
  outer loop
   vertex 432.73999 409.546997 243.376007
   vertex 432.760986 404.773987 249.417007
   vertex 431.10199 413.31601 250.888
  endloop
 endfacet
facet normal -0.778171241 -0.25032717 0.576008558
  outer loop
   vertex 431.10199 413.31601 250.888
   vertex 432.760986 404.773987 249.417007
   vertex 435.649994 408.152008 254.787994
  endloop
 endfacet
facet normal -0.22329393 -0.765209436 -0.603816509
  outer loop
   vertex 440.222992 405.397003 245.867996
   vertex 432.760986 404.773987 249.417007
   vertex 432.73999 409.546997 243.376007
  endloop
 endfacet
facet normal -0.513952434 -0.574013174 0.637465119
  outer loop
   vertex 435.649994 408.152008 254.787994
   vertex 432.760986 404.773987 249.417007
   vertex 440.690002 402.591003 253.843994
  endloop
 endfacet
facet normal -0.0768255368 -0.941937804 -0.326880634
  outer loop
   vertex 440.690002 402.591003 253.843994
   vertex 432.760986 404.773987 249.417007
   vertex 440.222992 405.397003 245.867996
  endloop
 endfacet
endsolid MATLAB_1
